HIERARCHY
ROOT Hips
{
	OFFSET 0.000000 103.266502 0.000000
	CHANNELS 6 Xposition Yposition Zposition Xrotation Yrotation Zrotation 
	JOINT Spine
	{
		OFFSET -0.002400 12.777504 0.315300
		CHANNELS 3 Xrotation Yrotation Zrotation
		JOINT Spine1
		{
			OFFSET -0.002067 5.816869 0.032633
			CHANNELS 3 Xrotation Yrotation Zrotation
			JOINT Spine1_split
			{
				OFFSET -0.002067 5.816869 0.032633
				CHANNELS 3 Xrotation Yrotation Zrotation
				JOINT Spine2
				{
					OFFSET -0.002067 5.816869 0.032633
					CHANNELS 3 Xrotation Yrotation Zrotation
					JOINT Neck
					{
						OFFSET -0.003700 21.199493 -0.826900
						CHANNELS 3 Xrotation Yrotation Zrotation
						JOINT Head
						{
							OFFSET 0.000000 20.442200 4.834800
							CHANNELS 3 Xrotation Yrotation Zrotation
							JOINT HeadTop_End
							{
								OFFSET 0.000000 34.668396 4.968400
								CHANNELS 3 Xrotation Yrotation Zrotation
								End Site
								{
									OFFSET 0.000000 0.000000 0.000000
								}
							}
						}
					}
					JOINT LeftShoulder
					{
						OFFSET 3.288150 8.794197 -1.372250
						CHANNELS 3 Xrotation Yrotation Zrotation
						JOINT LeftShoulder_split
						{
							OFFSET 3.288150 8.794197 -1.372250
							CHANNELS 3 Xrotation Yrotation Zrotation
							JOINT LeftArm
							{
								OFFSET 11.953299 -2.279007 -0.146200
								CHANNELS 3 Xrotation Yrotation Zrotation
								JOINT LeftForeArm
								{
									OFFSET 18.448900 0.000000 0.000000
									CHANNELS 3 Xrotation Yrotation Zrotation
									JOINT LeftHand
									{
										OFFSET 29.527798 0.000000 0.000000
										CHANNELS 3 Xrotation Yrotation Zrotation
										JOINT LeftHandThumb1
										{
											OFFSET 10.739754 -2.369614 9.225399
											CHANNELS 3 Xrotation Yrotation Zrotation
											JOINT LeftHandThumb2
											{
												OFFSET 4.926170 -2.844131 2.844125
												CHANNELS 3 Xrotation Yrotation Zrotation
												JOINT LeftHandThumb3
												{
													OFFSET 4.614891 -2.664413 2.664409
													CHANNELS 3 Xrotation Yrotation Zrotation
													JOINT LeftHandThumb4
													{
														OFFSET 4.432465 -2.559082 2.559083
														CHANNELS 3 Xrotation Yrotation Zrotation
														End Site
														{
															OFFSET 0.000000 0.000000 0.000000
														}
													}
												}
											}
										}
										JOINT LeftHandIndex1
										{
											OFFSET 26.467674 0.187653 6.405298
											CHANNELS 3 Xrotation Yrotation Zrotation
											JOINT LeftHandIndex2
											{
												OFFSET 8.792900 0.000000 0.000000
												CHANNELS 3 Xrotation Yrotation Zrotation
												JOINT LeftHandIndex3
												{
													OFFSET 10.075203 0.000000 0.000000
													CHANNELS 3 Xrotation Yrotation Zrotation
													End Site
													{
														OFFSET 0.000000 0.000000 0.000000
													}
												}
											}
										}
										JOINT LeftHandMiddle1
										{
											OFFSET 25.764404 0.000000 0.000000
											CHANNELS 3 Xrotation Yrotation Zrotation
											JOINT LeftHandMiddle2
											{
												OFFSET 9.393974 0.000000 0.000000
												CHANNELS 3 Xrotation Yrotation Zrotation
												JOINT LeftHandMiddle3
												{
													OFFSET 10.771950 0.000000 0.000000
													CHANNELS 3 Xrotation Yrotation Zrotation
													End Site
													{
														OFFSET 0.000000 0.000000 0.000000
													}
												}
											}
										}
										JOINT LeftHandRing1
										{
											OFFSET 24.660927 0.144547 -6.225808
											CHANNELS 3 Xrotation Yrotation Zrotation
											JOINT LeftHandRing2
											{
												OFFSET 9.393799 0.000000 0.000000
												CHANNELS 3 Xrotation Yrotation Zrotation
												JOINT LeftHandRing3
												{
													OFFSET 9.928497 0.000000 0.000000
													CHANNELS 3 Xrotation Yrotation Zrotation
													End Site
													{
														OFFSET 0.000000 0.000000 0.000000
													}
												}
											}
										}
										JOINT LeftHandPinky1
										{
											OFFSET 23.655350 0.125290 -12.815412
											CHANNELS 3 Xrotation Yrotation Zrotation
											JOINT LeftHandPinky2
											{
												OFFSET 8.425102 0.000000 0.000000
												CHANNELS 3 Xrotation Yrotation Zrotation
												JOINT LeftHandPinky3
												{
													OFFSET 8.147003 0.000000 0.000000
													CHANNELS 3 Xrotation Yrotation Zrotation
													End Site
													{
														OFFSET 0.000000 0.000000 0.000000
													}
												}
											}
										}
									}
								}
							}
						}
					}
					JOINT RightShoulder
					{
						OFFSET -3.249400 8.794197 -1.372250
						CHANNELS 3 Xrotation Yrotation Zrotation
						JOINT RightShoulder_split
						{
							OFFSET -3.249400 8.794197 -1.372250
							CHANNELS 3 Xrotation Yrotation Zrotation
							JOINT RightArm
							{
								OFFSET -11.953299 -2.279007 -0.146200
								CHANNELS 3 Xrotation Yrotation Zrotation
								JOINT RightForeArm
								{
									OFFSET -18.448900 0.000000 0.000000
									CHANNELS 3 Xrotation Yrotation Zrotation
									JOINT RightHand
									{
										OFFSET -29.527802 0.000000 0.000000
										CHANNELS 3 Xrotation Yrotation Zrotation
										JOINT RightHandThumb1
										{
											OFFSET -10.739754 -2.369614 9.225399
											CHANNELS 3 Xrotation Yrotation Zrotation
											JOINT RightHandThumb2
											{
												OFFSET -4.926170 -2.844131 2.844125
												CHANNELS 3 Xrotation Yrotation Zrotation
												JOINT RightHandThumb3
												{
													OFFSET -4.614891 -2.664413 2.664409
													CHANNELS 3 Xrotation Yrotation Zrotation
													JOINT RightHandThumb4
													{
														OFFSET -4.432465 -2.559082 2.559083
														CHANNELS 3 Xrotation Yrotation Zrotation
														End Site
														{
															OFFSET 0.000000 0.000000 0.000000
														}
													}
												}
											}
										}
										JOINT RightHandIndex1
										{
											OFFSET -26.467674 0.187653 6.405298
											CHANNELS 3 Xrotation Yrotation Zrotation
											JOINT RightHandIndex2
											{
												OFFSET -8.792900 0.000000 0.000000
												CHANNELS 3 Xrotation Yrotation Zrotation
												JOINT RightHandIndex3
												{
													OFFSET -10.075203 0.000000 0.000000
													CHANNELS 3 Xrotation Yrotation Zrotation
													End Site
													{
														OFFSET 0.000000 0.000000 0.000000
													}
												}
											}
										}
										JOINT RightHandMiddle1
										{
											OFFSET -25.764404 0.000000 0.000000
											CHANNELS 3 Xrotation Yrotation Zrotation
											JOINT RightHandMiddle2
											{
												OFFSET -9.393974 0.000000 0.000000
												CHANNELS 3 Xrotation Yrotation Zrotation
												JOINT RightHandMiddle3
												{
													OFFSET -10.771950 0.000000 0.000000
													CHANNELS 3 Xrotation Yrotation Zrotation
													End Site
													{
														OFFSET 0.000000 0.000000 0.000000
													}
												}
											}
										}
										JOINT RightHandRing1
										{
											OFFSET -24.660927 0.144547 -6.225808
											CHANNELS 3 Xrotation Yrotation Zrotation
											JOINT RightHandRing2
											{
												OFFSET -9.393799 0.000000 0.000000
												CHANNELS 3 Xrotation Yrotation Zrotation
												JOINT RightHandRing3
												{
													OFFSET -9.928497 0.000000 0.000000
													CHANNELS 3 Xrotation Yrotation Zrotation
													End Site
													{
														OFFSET 0.000000 0.000000 0.000000
													}
												}
											}
										}
										JOINT RightHandPinky1
										{
											OFFSET -23.655350 0.125290 -12.815412
											CHANNELS 3 Xrotation Yrotation Zrotation
											JOINT RightHandPinky2
											{
												OFFSET -8.425102 0.000000 0.000000
												CHANNELS 3 Xrotation Yrotation Zrotation
												JOINT RightHandPinky3
												{
													OFFSET -8.147003 0.000000 0.000000
													CHANNELS 3 Xrotation Yrotation Zrotation
													End Site
													{
														OFFSET 0.000000 0.000000 0.000000
													}
												}
											}
										}
									}
								}
							}
						}
					}
				}
			}
		}
	}
	JOINT LeftUpLeg
	{
		OFFSET 11.394100 -6.187798 -0.413800
		CHANNELS 3 Xrotation Yrotation Zrotation
		JOINT LeftLeg
		{
			OFFSET 0.430247 -32.302673 3.732800
			CHANNELS 3 Xrotation Yrotation Zrotation
			JOINT LeftFoot
			{
				OFFSET -0.430247 -48.264931 -6.423300
				CHANNELS 3 Xrotation Yrotation Zrotation
				JOINT LeftToeBase
				{
					OFFSET 4.230900 -16.068199 23.438400
					CHANNELS 3 Xrotation Yrotation Zrotation
					JOINT LeftToe_End
					{
						OFFSET 4.510700 0.695400 19.974600
						CHANNELS 3 Xrotation Yrotation Zrotation
						End Site
						{
							OFFSET 0.000000 0.000000 0.000000
						}
					}
				}
			}
		}
	}
	JOINT RightUpLeg
	{
		OFFSET -11.333700 -6.187798 -0.413800
		CHANNELS 3 Xrotation Yrotation Zrotation
		JOINT RightLeg
		{
			OFFSET -0.430392 -32.302628 3.733000
			CHANNELS 3 Xrotation Yrotation Zrotation
			JOINT RightFoot
			{
				OFFSET 0.430392 -48.264973 -6.423500
				CHANNELS 3 Xrotation Yrotation Zrotation
				JOINT RightToeBase
				{
					OFFSET -4.230900 -16.068199 23.438400
					CHANNELS 3 Xrotation Yrotation Zrotation
					JOINT RightToe_End
					{
						OFFSET -4.510700 0.695400 19.974600
						CHANNELS 3 Xrotation Yrotation Zrotation
						End Site
						{
							OFFSET 0.000000 0.000000 0.000000
						}
					}
				}
			}
		}
	}
}
MOTION
Frames: 4
Frame Time: 0.016667
4.523659 94.781006 -0.024762 -62.791083 -92.812968 -63.399489 5.392294 -2.293764 -7.858357 2.771440 -0.553950 -1.077814 0.000000 0.000000 0.000000 2.777687 -0.510268 -1.087486 -12.273406 6.004517 4.761555 20.231338 76.958023 -25.708569 0.000001 0.000001 -0.000000 5.516885 -2.188421 12.208354 0.000000 0.000000 0.000000 -41.899362 5.599292 2.227373 0.045078 -12.980544 -0.290002 -49.394162 -3.550608 -0.088044 40.109951 -15.297189 -0.360458 5.639931 28.097749 11.338740 1.088517 40.896314 22.734042 -0.000000 0.000002 0.000000 6.882272 2.840016 -61.140493 8.247955 7.640052 -89.897898 -0.000000 -0.000002 -0.000002 -2.345521 4.688848 -62.655258 8.754159 9.897072 -87.051253 -0.000001 -0.000000 -0.000003 -9.042480 10.045605 -60.766192 8.524032 9.508870 -66.892912 0.000000 -0.000003 0.000000 -17.946783 14.755017 -51.485925 8.868336 8.666986 -84.811989 0.000000 0.000001 -0.000001 -2.478558 1.878760 -16.638411 0.000000 0.000000 0.000000 -51.925892 54.163776 47.616613 1.362565 130.520311 0.246815 -70.593366 -0.218319 -24.603890 0.277491 -1.521505 -1.570510 7.169019 -41.689648 -15.773511 -4.517969 11.064480 4.673946 0.000000 -0.000000 0.000002 6.412845 -12.738384 14.389583 9.941746 -7.465168 101.743242 0.000001 -0.000002 0.000002 2.653208 -11.302319 44.730933 9.916100 -9.880670 94.351222 0.000001 -0.000002 0.000004 2.140180 -7.454458 61.765025 9.609249 -8.992475 89.388721 -0.000000 -0.000002 -0.000000 -4.886649 -23.798131 68.396162 13.518286 -7.949264 112.864935 -0.000001 -0.000000 0.000000 -33.394537 33.004348 36.721686 26.808868 -8.251236 1.042440 -1.256700 5.544726 -17.218133 -1.836411 -0.000626 -0.000029 -0.000000 0.000001 0.000000 -30.748279 -13.124098 -20.343676 14.795347 9.987514 -3.664345 6.647528 14.135502 18.777165 -0.001639 -0.000382 -0.000007 -0.000000 -0.000000 0.000000 
4.524312 94.784569 -0.024811 -62.772444 -92.807497 -63.376888 5.392245 -2.293709 -7.858146 2.771400 -0.556401 -1.077452 0.000000 0.000000 0.000000 2.777600 -0.514367 -1.086866 -12.261160 5.997538 4.760195 20.271091 76.969975 -25.754780 0.000001 -0.000000 0.000000 5.518628 -2.184563 12.217439 0.000000 0.000000 0.000000 -41.910208 5.611442 2.220992 0.057261 -13.133510 -0.286640 -49.443353 -3.460262 0.032219 40.109955 -15.297185 -0.360458 5.639927 28.097744 11.338736 1.088513 40.896318 22.734040 -0.000001 -0.000001 -0.000001 6.882276 2.840017 -61.140493 8.247955 7.640052 -89.897891 0.000001 -0.000000 0.000001 -2.345519 4.688848 -62.655258 8.754160 9.897076 -87.051253 0.000001 0.000000 -0.000000 -9.042479 10.045606 -60.766192 8.524029 9.508866 -66.892906 0.000001 0.000001 -0.000002 -17.946785 14.755017 -51.485925 8.868339 8.666988 -84.811989 -0.000000 0.000000 0.000001 -2.479249 1.875583 -16.638718 0.000000 0.000000 0.000000 -51.759959 54.134461 47.334225 -0.786856 130.482704 1.826145 -72.076302 -0.111493 -24.458194 0.277492 -1.521505 -1.570507 7.169025 -41.689648 -15.773511 -4.517971 11.064475 4.673945 0.000001 -0.000001 0.000002 6.412843 -12.738382 14.389585 9.941748 -7.465168 101.743236 -0.000001 -0.000001 -0.000001 2.653207 -11.302318 44.730929 9.916097 -9.880666 94.351215 0.000001 0.000000 -0.000001 2.140180 -7.454457 61.765025 9.609248 -8.992472 89.388721 0.000001 -0.000000 0.000002 -4.886648 -23.798131 68.396162 13.518286 -7.949264 112.864935 -0.000001 -0.000000 -0.000001 -33.376003 33.010939 36.704894 26.793582 -8.248058 1.049842 -1.250936 5.545018 -17.221123 -1.700148 -0.000692 -0.000058 -0.000000 0.000000 0.000000 -30.733662 -13.123858 -20.349978 14.779177 9.986335 -3.656115 6.653681 14.135018 18.774978 0.001112 -0.000362 0.000129 0.000000 -0.000000 0.000000 
4.525071 94.788589 -0.024256 -62.792661 -92.800633 -63.392946 5.392242 -2.293868 -7.857989 2.771261 -0.563893 -1.076319 0.000000 0.000000 0.000000 2.777363 -0.526632 -1.085020 -12.248463 5.976468 4.762427 20.362351 77.005841 -25.852992 0.000000 -0.000001 -0.000000 5.523681 -2.173153 12.243789 0.000000 0.000000 0.000000 -41.919282 5.652345 2.202117 0.064105 -13.136952 -0.284902 -49.498593 -3.474575 0.031501 40.109948 -15.297190 -0.360458 5.639929 28.097745 11.338738 1.088514 40.896314 22.734039 -0.000002 -0.000004 -0.000002 6.882271 2.840016 -61.140493 8.247953 7.640054 -89.897891 -0.000000 0.000002 0.000000 -2.345523 4.688849 -62.655258 8.754160 9.897075 -87.051253 0.000002 0.000001 -0.000001 -9.042480 10.045604 -60.766192 8.524032 9.508869 -66.892906 -0.000002 0.000000 -0.000002 -17.946781 14.755017 -51.485922 8.868337 8.666988 -84.811989 0.000001 -0.000000 0.000001 -2.480389 1.866609 -16.643228 0.000000 0.000000 0.000000 -51.815796 54.140270 47.365217 -0.772590 130.490177 1.814559 -72.098452 -0.115883 -24.465726 0.277491 -1.521505 -1.570509 7.169021 -41.689648 -15.773511 -4.517968 11.064477 4.673948 0.000000 -0.000000 -0.000000 6.412843 -12.738385 14.389583 9.941745 -7.465167 101.743242 0.000001 0.000001 0.000002 2.653210 -11.302319 44.730929 9.916093 -9.880665 94.351222 -0.000001 -0.000000 0.000001 2.140179 -7.454457 61.765025 9.609247 -8.992472 89.388721 -0.000001 -0.000002 0.000003 -4.886649 -23.798131 68.396162 13.518288 -7.949262 112.864935 -0.000000 0.000000 0.000001 -33.356998 33.018186 36.686394 26.776918 -8.247291 1.057327 -1.244588 5.545225 -17.222879 -1.637684 -0.000718 -0.000042 0.000000 -0.000000 0.000000 -30.715562 -13.123806 -20.357264 14.759593 9.982376 -3.648112 6.660500 14.134537 18.774095 0.000786 -0.000396 0.000158 -0.000000 0.000000 -0.000000 
4.525926 94.792946 -0.023008 -62.869808 -92.791822 -63.465291 5.395991 -2.293167 -7.853020 2.770431 -0.576458 -1.075720 0.000000 0.000000 0.000000 2.777962 -0.546923 -1.081949 -12.234885 5.943173 4.765604 20.501226 77.063672 -25.999342 0.000001 0.000000 -0.000000 5.535948 -2.153916 12.285033 0.000000 0.000000 0.000000 -41.932058 5.710411 2.170944 0.070654 -13.142540 -0.283217 -49.551865 -3.487770 0.031489 40.109955 -15.297190 -0.360459 5.639928 28.097745 11.338742 1.088515 40.896318 22.734040 -0.000001 -0.000003 -0.000002 6.882274 2.840017 -61.140493 8.247951 7.640052 -89.897891 -0.000001 0.000001 -0.000000 -2.345521 4.688850 -62.655258 8.754160 9.897075 -87.051253 -0.000004 -0.000000 -0.000001 -9.042481 10.045607 -60.766192 8.524031 9.508868 -66.892912 -0.000001 0.000001 -0.000002 -17.946786 14.755019 -51.485925 8.868337 8.666988 -84.811996 0.000000 0.000000 0.000000 -2.482176 1.852234 -16.650703 0.000000 0.000000 0.000000 -51.874843 54.138733 47.397227 -0.753171 130.499193 1.799629 -72.124113 -0.115266 -24.456515 0.277492 -1.521505 -1.570509 7.169024 -41.689648 -15.773514 -4.517972 11.064482 4.673949 0.000000 0.000001 0.000002 6.412842 -12.738385 14.389581 9.941748 -7.465167 101.743242 0.000000 0.000001 0.000001 2.653211 -11.302320 44.730933 9.916096 -9.880670 94.351215 -0.000003 -0.000002 -0.000000 2.140179 -7.454457 61.765025 9.609245 -8.992473 89.388721 0.000002 -0.000001 0.000003 -4.886648 -23.798131 68.396162 13.518286 -7.949262 112.864935 -0.000003 0.000000 -0.000000 -33.338990 33.026321 36.667194 26.760078 -8.250001 1.064776 -1.238064 5.545221 -17.223014 -1.669478 -0.000687 -0.000008 -0.000000 -0.000002 -0.000000 -30.693989 -13.123525 -20.365645 14.736789 9.975153 -3.640442 6.667682 14.133952 18.774614 0.000119 -0.000335 0.000122 0.000000 -0.000000 0.000000 
